<svg xmlns="http://www.w3.org/2000/svg" width="12" height="12" viewBox="0 0 12 12">
    <path fill="#5779D9" fill-rule="nonzero" d="M4.256 10.747v-.038a81.342 81.342 0 0 1-.005-.792l-.2.035a2.495 2.495 0 0 1-.483.031 3.597 3.597 0 0 1-.604-.062 1.336 1.336 0 0 1-.583-.267A1.129 1.129 0 0 1 2 9.107l-.087-.205a2.234 2.234 0 0 0-.274-.454 1.057 1.057 0 0 0-.379-.338l-.06-.044a.644.644 0 0 1-.114-.107.49.49 0 0 1-.078-.125c-.017-.042-.003-.076.044-.102a.553.553 0 0 1 .252-.04l.174.026c.116.024.26.095.43.214.171.119.312.273.422.463.134.243.294.428.483.556.188.128.378.191.57.191.19 0 .356-.015.495-.044.14-.03.27-.074.392-.134.052-.397.194-.703.426-.917a5.833 5.833 0 0 1-.892-.16 3.505 3.505 0 0 1-.817-.347 2.355 2.355 0 0 1-.7-.596c-.186-.238-.338-.55-.457-.935a4.54 4.54 0 0 1-.178-1.335c0-.718.229-1.33.687-1.834-.202-.507-.196-1.073.018-1.696.058-.049.116-.096.176-.141.158-.007.363.04.615.142.33.133.572.248.726.343.154.094.277.175.37.24a6.045 6.045 0 0 1 1.67-.231c.574 0 1.13.077 1.67.23l.33-.213c.226-.142.493-.273.8-.391.244-.094.442-.134.595-.12.049.037.097.076.145.115.228.634.24 1.208.035 1.723.458.504.687 1.115.687 1.833 0 .504-.06.95-.178 1.34-.12.388-.273.7-.461.934a2.445 2.445 0 0 1-.705.592c-.281.16-.554.276-.818.347a5.827 5.827 0 0 1-.891.16c.301.268.452.689.452 1.264v1.44A5.57 5.57 0 0 1 5.92 11a5.57 5.57 0 0 1-1.664-.253z"/>
</svg>
