<svg xmlns="http://www.w3.org/2000/svg" width="12" height="12" viewBox="0 0 12 12">
    <path fill="#5779D9" fill-rule="nonzero" d="M11 2.888c-.368.15-.763.252-1.178.298.423-.234.749-.605.902-1.048a4.324 4.324 0 0 1-1.303.46A2.131 2.131 0 0 0 7.923 2C6.6 2 5.625 3.14 5.925 4.325c-1.705-.08-3.217-.833-4.229-1.979-.537.851-.278 1.965.635 2.528a2.174 2.174 0 0 1-.929-.236c-.022.877.659 1.697 1.645 1.88-.288.072-.605.09-.926.032.26.752 1.018 1.3 1.916 1.315A4.376 4.376 0 0 1 1 8.649c.908.538 1.987.851 3.145.851 3.81 0 5.961-2.969 5.831-5.632.401-.267.749-.6 1.024-.98z"/>
</svg>
